<svg id="Layer_1" data-name="Layer 1" xmlns="http://www.w3.org/2000/svg" xmlns:xlink="http://www.w3.org/1999/xlink" width="328.82" height="69" viewBox="0 0 328.82 69"><defs><style>.cls-1{fill:#1d1d1b;}.cls-2{fill:url(#linear-gradient);}.cls-3{fill:url(#New_Gradient_Swatch_6);}.cls-4{fill:#fff;}.cls-5{fill:#a5a5a4;}.cls-6{fill:url(#New_Gradient_Swatch_4);}.cls-7{fill:url(#New_Gradient_Swatch_4-2);}.cls-8{fill:url(#New_Gradient_Swatch_4-3);}.cls-9{fill:url(#New_Gradient_Swatch_4-4);}</style><linearGradient id="linear-gradient" x1="1.85" y1="31.46" x2="48.01" y2="31.46" gradientUnits="userSpaceOnUse"><stop offset="0" stop-color="#f1de9c"/><stop offset="0.5" stop-color="#fdf3d2"/><stop offset="1" stop-color="#f7e3a4"/></linearGradient><linearGradient id="New_Gradient_Swatch_6" x1="6.47" y1="50.4" x2="43.3" y2="50.4" gradientUnits="userSpaceOnUse"><stop offset="0" stop-color="#58a132"/><stop offset="0.33" stop-color="#94c04e"/><stop offset="0.66" stop-color="#77b140"/><stop offset="1" stop-color="#58a132"/></linearGradient><linearGradient id="New_Gradient_Swatch_4" x1="3.57" y1="30.12" x2="45.39" y2="30.12" gradientUnits="userSpaceOnUse"><stop offset="0" stop-color="#b1251a"/><stop offset="0.5" stop-color="#d7352e"/><stop offset="1" stop-color="#b1251a"/></linearGradient><linearGradient id="New_Gradient_Swatch_4-2" x1="3.57" y1="20.18" x2="45.39" y2="20.18" xlink:href="#New_Gradient_Swatch_4"/><linearGradient id="New_Gradient_Swatch_4-3" x1="3.57" y1="20.17" x2="45.39" y2="20.17" xlink:href="#New_Gradient_Swatch_4"/><linearGradient id="New_Gradient_Swatch_4-4" x1="3.57" y1="30.11" x2="45.39" y2="30.11" xlink:href="#New_Gradient_Swatch_4"/></defs><title>logo</title><path class="cls-1" d="M222,58.06h2V63.6c0,1.36,0,3.06,2.55,3.06S229,65,229,63.63V58.09h2v5.59c0,1.62,0,4.52-4.48,4.52S222,65.28,222,63.65Z"/><path class="cls-1" d="M233.11,58.09h2.24L241,65.45h0V58.09h1.88V67.9h-2.21L235,60.54h0V67.9h-1.88Z"/><path class="cls-1" d="M246,58.09h2V67.9h-2Z"/><path class="cls-1" d="M249.82,58.09H252l3,7.86,3-7.86h2.11l-4.09,9.81H254Z"/><path class="cls-1" d="M263.06,58.09h7.84v1.54h-6.14V62.1h5.89v1.54h-5.89v2.72H271V67.9h-7.94Z"/><path class="cls-1" d="M274,58.09h5.79c2.37,0,3.14,1.14,3.14,2.67a2.31,2.31,0,0,1-1.54,2.36v0c1.11.24,1.36,1.26,1.36,2.65a4.27,4.27,0,0,0,.39,2.1H281a3.33,3.33,0,0,1-.24-1.48c0-1.41-.18-2.4-1.61-2.4h-3.33V67.9H274Zm5.23,4.4c1.08,0,1.67-.35,1.67-1.45s-.64-1.41-1.67-1.41h-3.38v2.86Z"/><path class="cls-1" d="M290.14,57.93c1.4,0,4.21.27,4.45,3h-2.07c-.06-.74-.7-1.54-2.29-1.54-1.28,0-2.12.41-2.12,1.31,0,2.26,6.79.1,6.79,4.19,0,2.47-2.44,3.12-4.38,3.12-3.28,0-4.59-1.36-4.62-3.37H288c0,1.26,1,1.86,2.61,1.86,1.16,0,2.25-.36,2.25-1.41,0-2.37-6.71-.3-6.71-4.24C286.12,58.77,287.92,57.93,290.14,57.93Z"/><path class="cls-1" d="M298,58.09h2V67.9h-2Z"/><path class="cls-1" d="M305,59.63H301.5V58.09h8.95v1.54H307V67.9H305Z"/><path class="cls-1" d="M316,64.16,312,58.09h2.39L317,62.46l2.66-4.37h2.39L318,64.16V67.9h-2Z"/><path class="cls-1" d="M85,1.19h5.63a2.7,2.7,0,0,1,3,3,2.78,2.78,0,0,1-2.94,3H86.92v3.67H85Zm1.92,4.44H90c1.09,0,1.68-.31,1.68-1.45A1.35,1.35,0,0,0,90.15,2.7H86.92Z"/><path class="cls-1" d="M96.24,1.19H102c2.33,0,3.09,1.12,3.09,2.61a2.26,2.26,0,0,1-1.51,2.32v0c1.09.24,1.33,1.24,1.33,2.6a4.24,4.24,0,0,0,.38,2.06h-2.07A3.44,3.44,0,0,1,103,9.35C103,8,102.83,7,101.42,7H98.16v3.8H96.24Zm5.23,4.31c1.07,0,1.64-.34,1.64-1.42s-.63-1.38-1.64-1.38H98.16V5.5Z"/><path class="cls-1" d="M108,1.19h1.92v9.62H108Z"/><path class="cls-1" d="M113,1.19h7.6V2.7h-5.68V5.12h5.38V6.63h-5.38v4.18H113Z"/><path class="cls-1" d="M127,7.14l-4-5.95h2.34L128,5.47l2.61-4.28h2.35l-4,5.95v3.67H127Z"/><path class="cls-1" d="M138.22.92c1.41,0,4.23.27,4.47,3.06h-2.07c-.07-.74-.71-1.55-2.3-1.55-1.28,0-2.13.42-2.13,1.32C136.19,6,143,3.84,143,8c0,2.48-2.45,3.13-4.39,3.13-3.29,0-4.61-1.36-4.63-3.38h2.07c0,1.26,1,1.87,2.62,1.87,1.17,0,2.26-.37,2.26-1.42,0-2.38-6.74-.31-6.74-4.25C134.19,1.75,136,.92,138.22.92Z"/><path class="cls-1" d="M156,10.81h-1.13l-.27-1.25a4.41,4.41,0,0,1-3.48,1.52c-3.86,0-5.37-2.37-5.37-5.08s1.6-5.08,5.32-5.08c2.78,0,4.56,1.48,4.76,3.37h-2.07A2.61,2.61,0,0,0,151,2.43c-2.37,0-3.28,1.52-3.28,3.64,0,2.56,1.57,3.5,3.18,3.5A2.82,2.82,0,0,0,154.08,7h-2.59V5.53H156Z"/><path class="cls-1" d="M158.25,6c0-2.71,1.51-5.08,5.38-5.08S169,3.29,169,6s-1.51,5.08-5.37,5.08S158.25,8.71,158.25,6ZM167,6a3.39,3.39,0,1,0-6.76,0A3.39,3.39,0,1,0,167,6Z"/><path class="cls-1" d="M171,1.19h1.92v8h5.56v1.59H171Z"/><path class="cls-1" d="M85.13,31.31c0-5.51,0-6.51-.08-7.64s-.29-1.88-1.5-2a10,10,0,0,0-1.25-.08c-.13,0-.29-.09-.29-.21s.16-.3.58-.3c1.67,0,4,.09,4.26.09.87,0,2.58-.09,4.29-.09,6.14,0,7.72,3.55,7.72,5.43,0,2.79-1.83,4.55-3.71,6.22,2.8.83,6.47,3.37,6.47,7.38S98.66,48,92.39,48c-.66,0-2,0-3.17-.12l-2.37-.09c-.09,0-.76,0-1.51,0s-1.63.09-2.21.09c-.37,0-.58-.09-.58-.3s.08-.21.29-.21A11.37,11.37,0,0,0,84,47.21c.71-.13.79-.92,1-2a75.59,75.59,0,0,0,.2-7.68Zm3.18.75c0,.25.08.34.25.38a11.76,11.76,0,0,0,2.25.16c2,0,2.84-.08,3.59-.92a5.43,5.43,0,0,0,1.42-3.79c0-2.71-1.51-5.72-5.18-5.72a10.2,10.2,0,0,0-1.87.17c-.34.08-.46.16-.46.37Zm0,3.92c0,2.76,0,7,0,7.56.12,1.71.12,2.12,1.25,2.66a8.78,8.78,0,0,0,3.21.51c2.42,0,5.39-.92,5.39-5.47a7.78,7.78,0,0,0-3.51-6.47,7.85,7.85,0,0,0-3.3-.92c-.46-.08-2.29-.08-2.88-.08-.12,0-.2.08-.2.25Z"/><path class="cls-1" d="M108,31.31c0-5.51,0-6.51-.09-7.64s-.29-1.79-1.5-2a12.31,12.31,0,0,0-1.25-.08.36.36,0,0,1-.29-.29c0-.21.17-.3.58-.3,1.67,0,4.05.09,4.26.09s7.93,0,8.76,0,1.38-.17,1.67-.21.33-.17.5-.17.17.17.17.34-.21.67-.29,1.66c0,.34-.13,1.92-.21,2.34,0,.17-.17.38-.34.38s-.29-.17-.29-.46a3.91,3.91,0,0,0-.21-1.26c-.25-.58-.62-.83-2.63-1.08-.62-.08-4.88-.12-5.3-.12-.16,0-.2.12-.2.37v9.64c0,.25,0,.38.2.38.46,0,5.3,0,6.14-.09s1.42-.12,1.79-.5.42-.46.55-.46.2.09.2.3-.2.79-.29,2c-.08.71-.17,2-.17,2.29s-.08.67-.33.67-.25-.13-.25-.33a3.24,3.24,0,0,0-.16-1.17c-.13-.51-.46-.92-1.88-1.08-1-.13-4.93-.17-5.55-.17-.21,0-.25.12-.25.25v3c0,1.21,0,5.34,0,6,.08,2.37.75,2.84,4.38,2.84a12.08,12.08,0,0,0,3.67-.38,2.69,2.69,0,0,0,1.67-2.46c.08-.42.17-.54.38-.54s.25.29.25.54a29.39,29.39,0,0,1-.51,3.42c-.25.92-.62.92-2,.92-2.75,0-4.88-.08-6.39-.12s-2.5-.09-3-.09c-.08,0-.79,0-1.59,0s-1.54.09-2.13.09c-.37,0-.58-.09-.58-.3a.28.28,0,0,1,.29-.29,10.61,10.61,0,0,0,1.13-.17c.71-.12.79-.83,1-1.87a72,72,0,0,0,.21-7.68Z"/><path class="cls-1" d="M156,47.81h-6.36a7.42,7.42,0,0,1-3.92-.71c-1.58-.83-2.91-2.54-5-5.21-1.53-1.92-3.16-4.21-3.95-5.16a.56.56,0,0,0-.5-.21l-4.67-.09c-.16,0-.25.09-.25.3v.83c0,3.41,0,6.16.17,7.62.13,1,.33,1.71,1.46,1.88a14,14,0,0,0,1.62.16.26.26,0,0,1,.29.3c0,.16-.16.29-.58.29-2,0-4.33-.13-4.5-.13s-2.5.13-3.62.13c-.38,0-.58-.09-.58-.29a.28.28,0,0,1,.29-.3,5.4,5.4,0,0,0,1.12-.16c.71-.17.79-.84,1-1.88a71.68,71.68,0,0,0,.21-7.66V31.27c0-5.5,0-6.5-.09-7.62s-.29-1.8-1.49-2a12.52,12.52,0,0,0-1.26-.08.36.36,0,0,1-.29-.3c0-.2.17-.29.59-.29,1.66,0,4.12.09,4.33.09.37,0,3.46-.09,4.58-.09,2.33,0,4.92.21,6.83,1.54a6.22,6.22,0,0,1,2.54,4.84c0,2.62-1.08,5.16-4.49,8.08,3,3.75,5.54,7,7.66,9.16,2,2,3.17,2.33,4.08,2.46.71.12,4.21.11,4.42.11M131.32,34.27a.54.54,0,0,0,.25.46,12.56,12.56,0,0,0,4.05.54,4.68,4.68,0,0,0,2.74-.63c1.25-.83,2.21-2.71,2.21-5.41,0-4.42-2.42-7-6.33-7a16.23,16.23,0,0,0-2.62.21.46.46,0,0,0-.3.42Z"/><path class="cls-1" d="M172.61,47.37c-.5-.25-.54-.37-.54-1.33,0-1.75.17-3.17.21-3.75,0-.38.08-.59.29-.59s.34.13.34.41a5.56,5.56,0,0,0,.12,1.3c.58,2.58,3.34,3.5,5.8,3.5,3.63,0,5.51-2,5.51-4.71S183,38.44,179.71,36L178,34.77c-4-3-5.26-5.13-5.26-7.59,0-4.18,3.3-6.68,8.14-6.68a17.72,17.72,0,0,1,3.8.42,4.63,4.63,0,0,0,1.29.17c.29,0,.38,0,.38.25a36.58,36.58,0,0,0-.17,3.75c0,.54,0,.79-.29.79s-.3-.16-.34-.45a6.52,6.52,0,0,0-.54-1.76c-.25-.42-1.46-1.75-4.76-1.75-2.67,0-4.88,1.33-4.88,3.84,0,2.25,1.13,3.55,4.76,6l1,.71c4.46,3,6,5.51,6,8.55a6.9,6.9,0,0,1-3.42,6A11.29,11.29,0,0,1,178,48.34,13.56,13.56,0,0,1,172.61,47.37Z"/><path class="cls-1" d="M209,21.13c0,1.08-.12,3.71-.12,4.13s-.17.46-.34.46-.25-.13-.29-.63l0-.37c-.13-1.09-.92-1.88-4.43-2l-2.92-.08v14.9c0,3.42,0,6.22.17,7.68.12,1,.29,1.71,1.42,1.87a12.75,12.75,0,0,0,1.67.17.26.26,0,0,1,.29.29c0,.17-.17.3-.59.3-2,0-4.34-.13-4.54-.13s-2.71.13-3.8.13c-.42,0-.58-.09-.58-.3s.08-.24.29-.24a4.52,4.52,0,0,0,1.08-.18c.75-.16,1-.87,1.09-1.91.16-1.46.16-4.26.16-7.68V22.67l-3.63.08c-2.29.05-3.17.3-3.71,1.13a5.33,5.33,0,0,0-.58,1.13c-.09.29-.21.33-.38.33a.28.28,0,0,1-.25-.29c0-.38.75-3.63.79-3.92H209Z"/><path class="cls-1" d="M320.49,37.57c0,3.42.05,6.22.21,7.68.13,1,.21,1.71,1.34,1.87a13.1,13.1,0,0,0,1.63.17.29.29,0,0,1,.33.29c0,.17-.21.3-.62.3-2,0-4.34-.13-4.55-.13s-2.55.13-3.63.13c-.42,0-.59-.09-.59-.3a.29.29,0,0,1,.3-.29,4.5,4.5,0,0,0,1.08-.17c.75-.16.88-.87,1-1.92.17-1.46.17-4.13.17-7.55V34.1a.19.19,0,0,0-.21-.21H301.64c-.13,0-.21,0-.21.21v3.55c0,3.42,0,6.14.16,7.6.13,1,.25,1.71,1.34,1.87a13.45,13.45,0,0,0,1.67.17.28.28,0,0,1,.29.29c0,.17-.17.3-.59.3-2,0-4.38-.13-4.54-.13s-2.55.13-3.68.13c-.37,0-.58-.09-.58-.3a.28.28,0,0,1,.29-.29,4.83,4.83,0,0,0,1.13-.17c.71-.16.79-.83,1-1.87a72,72,0,0,0,.21-7.68V31.31c0-5.51,0-6.51-.09-7.64s-.29-1.79-1.5-2a12.31,12.31,0,0,0-1.25-.08.35.35,0,0,1-.29-.29c0-.21.16-.3.58-.3,1.67,0,4,.09,4.22.09s2.5-.09,3.63-.09c.42,0,.58.09.58.3a.35.35,0,0,1-.29.29,4.3,4.3,0,0,0-.92.08c-1,.21-1.21.71-1.29,2s0,2.21,0,7.72v.75c0,.21.08.21.21.21H317c.12,0,.21,0,.21-.21v-.75c0-5.51-.05-6.59-.09-7.72s-.25-1.79-1.45-2a12.52,12.52,0,0,0-1.26-.08.31.31,0,0,1-.29-.29c0-.21.17-.3.58-.3,1.63,0,4,.09,4.18.09s2.54-.09,3.63-.09c.41,0,.62.09.62.3a.35.35,0,0,1-.33.29,4.49,4.49,0,0,0-.92.08c-1,.21-1.17.71-1.25,2s-.09,2.13-.09,7.64Z"/><path class="cls-1" d="M155.45,47.21a10,10,0,0,0,1.2-.09c.66-.08,1-.83,1.08-1.87.08-1.46.08-3,.08-3.55V38.65A6.34,6.34,0,0,0,157,35c-.29-.54-5.26-8.42-6.51-10.3a9.19,9.19,0,0,0-2.42-2.59,3.51,3.51,0,0,0-1.54-.5.37.37,0,0,1-.38-.34c0-.16.12-.25.46-.25.71,0,3.46.09,3.63.09S152,21,153.43,21c.42,0,.5.09.5.25s-.25.26-.58.38a.6.6,0,0,0-.46.58,2.93,2.93,0,0,0,.5,1.38l6.68,11.06c.75-1.5,5.34-9.1,6-10.27a3.72,3.72,0,0,0,.62-1.83c0-.5-.16-.8-.58-.92s-.55-.25-.55-.42.21-.21.59-.21c1,0,2.25.09,2.55.09s2.87-.09,3.58-.09c.25,0,.46.09.46.21a.42.42,0,0,1-.46.38,3.82,3.82,0,0,0-1.71.46,6.21,6.21,0,0,0-1.83,1.75c-1.21,1.42-6.39,9.76-7.14,11.26a7.2,7.2,0,0,0-.46,3.55V41.7c0,.59,0,2.09.13,3.55.08,1,.33,1.71,1.41,1.87a13.09,13.09,0,0,0,1.67.17.29.29,0,0,1,.3.29c0,.17-.21.3-.59.3-2,0-4.42-.13-4.63-.13s-2.57.06-3.66.06"/><path class="cls-1" d="M209,21.13c0,1.08-.13,3.71-.13,4.13s-.17.46-.33.46-.25-.13-.29-.63l0-.37c-.13-1.09-.92-1.88-4.43-2l-2.92-.08v14.9c0,3.42,0,6.22.17,7.68.12,1,.29,1.71,1.42,1.87a12.75,12.75,0,0,0,1.67.17.26.26,0,0,1,.29.29c0,.17-.17.3-.59.3-2,0-4.34-.13-4.55-.13s-2.71.13-3.79.13c-.42,0-.59-.09-.59-.3s.09-.24.3-.24a4.52,4.52,0,0,0,1.08-.18c.75-.16,1-.87,1.09-1.91.16-1.46.16-4.26.16-7.68V22.67l-3.63.08c-2.29.05-3.17.3-3.71,1.13a6.18,6.18,0,0,0-.59,1.13c-.08.29-.21.33-.37.33a.27.27,0,0,1-.25-.29c0-.38.75-3.63.79-3.92H209Z"/><path class="cls-1" d="M293.72,21.13c0,1.08-.13,3.71-.13,4.13s-.17.46-.33.46-.25-.13-.29-.63l0-.37c-.13-1.09-.92-1.88-4.43-2l-2.92-.08v14.9c0,3.42,0,6.22.17,7.68.12,1,.29,1.71,1.42,1.87a12.62,12.62,0,0,0,1.66.17.26.26,0,0,1,.3.29c0,.17-.17.3-.59.3-2,0-4.34-.13-4.55-.13s-2.71.13-3.79.13c-.42,0-.59-.09-.59-.3s.08-.24.29-.24a4.52,4.52,0,0,0,1.09-.18c.75-.16,1-.87,1.08-1.91.17-1.46.17-4.26.17-7.68V22.67l-3.63.08c-2.3.05-3.17.3-3.71,1.13a6.18,6.18,0,0,0-.59,1.13c-.08.29-.21.33-.37.33a.28.28,0,0,1-.26-.29c0-.38.76-3.63.8-3.92h19.24Z"/><path class="cls-1" d="M273.06,21c-.71,0-3.34.09-3.59.09s-1.59-.09-2.54-.09c-.38,0-.59.09-.59.21s.21.33.54.42.59.42.59.92a3.76,3.76,0,0,1-.63,1.83c-.67,1.17-5.26,8.77-6,10.27l-6.67-11.06a3,3,0,0,1-.51-1.38.61.61,0,0,1,.46-.58c.34-.12.59-.25.59-.38s-.08-.25-.5-.25c-1.42,0-2.92.09-3.17.09h0c-.09,0-1,.05-1.83.05s-1.64-.05-1.64-.05h0c-.33,0-1.88-.09-3.75-.09-.46,0-.63.09-.63.25a.36.36,0,0,0,.33.34c1.67,0,2,.41,2,1a7.48,7.48,0,0,1-.41,2.21c-1.3,4.55-4.59,14.82-5.51,17.74h-.17l-7.17-19.78c-.46-1.21-.76-1.67-1-1.67s-.46.2-1,1.63L222.5,42.62h-.09c-.46-1.46-4.21-14.48-4.8-16.74a20.2,20.2,0,0,1-.71-3.29.71.71,0,0,1,.5-.75,3.08,3.08,0,0,1,1.3-.21.37.37,0,0,0,.37-.34c0-.16-.16-.25-.67-.25-1.83,0-3.5.09-3.84.09S212.7,21,210.78,21c-.33,0-.58.09-.58.25a.33.33,0,0,0,.33.34,3.43,3.43,0,0,1,1.11.21c1,.33,1.34.79,1.92,2.67l6.51,21c.75,2.42,1.05,2.8,1.42,2.8s.67-.38,1.3-1.88c1.33-3.3,6.3-16.28,7.55-19.37l7.18,19.41c.5,1.38.83,1.84,1.21,1.84s.62-.42,1.58-3.05c1.46-4,5.09-15.24,6.72-19.74a12.18,12.18,0,0,1,1.31-2.87h0a.81.81,0,0,1,.51-.37.9.9,0,0,1,.43,0c.32.11.63.26,2,2.4,1.21,1.9,6.22,9.76,6.5,10.3a6.25,6.25,0,0,1,.8,3.63V41.7c0,.59,0,2.09-.08,3.55-.09,1-.34,1.71-1.09,1.87a4.5,4.5,0,0,1-1.08.17.29.29,0,0,0-.3.29c0,.21.17.3.59.3,1.08,0,3.42-.13,3.59-.13s2.59.13,4.63.13c.37,0,.58-.13.58-.3a.28.28,0,0,0-.29-.29,12.92,12.92,0,0,1-1.67-.17c-1.08-.16-1.34-.83-1.42-1.87-.12-1.46-.12-3-.12-3.55V38.65a7.09,7.09,0,0,1,.46-3.55c.75-1.5,5.92-9.84,7.13-11.26a6.22,6.22,0,0,1,1.84-1.75,3.79,3.79,0,0,1,1.71-.46.43.43,0,0,0,.46-.38C273.52,21.13,273.31,21,273.06,21Z"/><path class="cls-1" d="M75.33,32.9,67.71,13.05c-.57-1.48-.76-1.72-1-1.72s-.48.29-1,1.87L54.75,42.9c-.86,2.39-1.82,4.21-4,4.5-.38,0-1,.09-1.39.09s-.43.1-.43.29.29.38.91.38c2.25,0,4.88-.14,5.41-.14s2.58.14,3.73.14c.43,0,.72-.1.72-.38s-.15-.29-.48-.29h-.48c-.81,0-1.82-.43-1.82-1.39a10.12,10.12,0,0,1,.67-3.2l2.87-8.47a.5.5,0,0,1,.48-.38H71.2a.42.42,0,0,1,.43.29l.07.18C75.59,44.93,79.59,60,103.16,63.34h.14C84.73,60,79.92,44.08,75.33,32.9Zm-4.75-.57H61.45c-.15,0-.24-.1-.15-.34l4.21-12.91q.36-1.08.72,0L70.77,32C70.82,32.18,70.82,32.33,70.58,32.33Z"/><path class="cls-1" d="M157,55.62c-21.43,0-31.43,7.38-48.63,8,24.59-.51,30.52-4.9,48.63-4.9,19.23,0,50.42,8.15,50.42,8.15S179.42,55.62,157,55.62Z"/><path class="cls-2" d="M1.85,18.22v18A34.92,34.92,0,0,0,6.11,49.87,59.13,59.13,0,0,1,24.67,33.2l.16-.09.17.09A59.25,59.25,0,0,1,43.67,50,34.63,34.63,0,0,0,48,36.26v-18A13.78,13.78,0,0,0,44.28,16a31.62,31.62,0,0,0-5.55-1.72A66.53,66.53,0,0,0,24.84,12.9c-7.3,0-14.59,1-19.34,3.09A13.09,13.09,0,0,0,1.85,18.22Z"/><path class="cls-1" d="M10.43,4.77c-.83.14-1.66.28-2.49.44V4l.5-.09A2.71,2.71,0,0,0,10.83,2l1.32-.19v8.44l-1.72.26Zm6.65.41v0A1.53,1.53,0,0,1,15.7,3.6c0-1.22.89-2.37,3.56-2.55s3.55.89,3.55,2.1a1.77,1.77,0,0,1-1.38,1.73v0A2,2,0,0,1,23.18,7c0,1-.65,2.55-3.92,2.73s-3.92-1.29-3.92-2.24A2.31,2.31,0,0,1,17.08,5.18Zm2.18,3.28c1.39-.09,2-.67,2-1.48s-.65-1.4-2-1.31-2,.71-2,1.56S17.86,8.55,19.26,8.46ZM21,3.32c0-.71-.6-1.07-1.74-1s-1.76.51-1.76,1.22.6,1,1.76.93S21,4,21,3.32Zm4.11-2.26c2.5,0,5,.12,7.49.33V2.84C31,4.47,29.06,7,28.69,9.44l-2.1-.06c.23-2.3,2.64-5.34,4.2-6.71-1.89-.13-3.78-.19-5.68-.19Zm9.26,8.79c0-2.11,1.59-3,3.33-3.46s2.43-.65,2.44-1.58-1-1.56-1.71-1.66c-1.3-.19-2,.42-2.07,1.5l-1.8-.21c0-2.05,1.6-2.89,3.65-2.59s3.71,1.37,3.71,3.43c0,1.4-1.15,1.87-2.43,2.18s-2.66.46-3.11,1.29c1.85.23,3.7.52,5.53.87V11C39.41,10.49,36.89,10.12,34.37,9.85Z"/><path class="cls-3" d="M20.78,64.77a30.43,30.43,0,0,0,4.13,2.16l.11,0,.69-.32c.58-.28,1.42-.71,2.43-1.29a46,46,0,0,0,7.49-5.41,39.13,39.13,0,0,0,7.67-9.22l-.18-.26c-.21-.3-.52-.73-.92-1.26-.81-1.07-2-2.58-3.61-4.29a57.78,57.78,0,0,0-13.76-11A58.67,58.67,0,0,0,6.47,50.5,37.18,37.18,0,0,0,9.53,55,43.58,43.58,0,0,0,20.78,64.77Z"/><path class="cls-4" d="M26.25,55.61c1.17-1.36,4.74-.35,8.92-.16l1.28,0c-.22-.11-.55-.29-.9-.5A5.47,5.47,0,0,1,34,53.76l-.42-.09-1.13-.19a23.63,23.63,0,0,0-3.37-.28,9.63,9.63,0,0,0-2.21.22,3,3,0,0,0-1.53.78,1.48,1.48,0,0,0-.39.9Z"/><path class="cls-4" d="M25.07,54.21l.12-.17a2.75,2.75,0,0,1,1-.65A8.45,8.45,0,0,1,29.11,53a27,27,0,0,1,4.8.52c0-.07,0-.17-.08-.31L33.54,52c-.24-1-.55-2.34-.87-3.68-.62-2.67-1.25-5.35-1.25-5.35h0l0,0s0,0-.1-.06L31,42.69c-.26-.13-.64-.32-1.07-.5a7.94,7.94,0,0,0-2.9-.72,2.28,2.28,0,0,0-1.66.53,1.15,1.15,0,0,0-.28.39Z"/><path class="cls-4" d="M34.13,53.41c0,.08,0,.13,0,.15a4.06,4.06,0,0,0,1,.92c.44.29.9.55,1.22.72L32.74,43.87l-1-.73c.06.25.16.67.28,1.2.2.88.48,2.06.77,3.29C33.34,50.09,34,52.73,34.13,53.41Z"/><path class="cls-4" d="M13.22,55.28l.43-.24c.42-.25.95-.57,1.35-.87a2.44,2.44,0,0,0,.54-.54v-.05l0-.19c.05-.18.11-.43.18-.74.15-.62.35-1.49.58-2.44.45-1.92,1-4.22,1.34-5.76.13-.57.24-1,.31-1.33l-1,.77Z"/><path class="cls-4" d="M15.8,53.56A27,27,0,0,1,20.6,53a10.14,10.14,0,0,1,2.26.22,3.21,3.21,0,0,1,1.66.85l.08.11V42.3a2,2,0,0,0-.21-.28,2.26,2.26,0,0,0-1.69-.55,7.47,7.47,0,0,0-2.58.58,14.65,14.65,0,0,0-1.72.8l-.1,0c-.21.93-1.86,8.05-2.39,10.2C15.86,53.3,15.83,53.45,15.8,53.56Z"/><path class="cls-4" d="M23.49,55.6l1.23-.5a1.45,1.45,0,0,0-.38-.83,2.32,2.32,0,0,0-.91-.59,8.16,8.16,0,0,0-2.83-.41,25.54,25.54,0,0,0-4.5.47l-.41.08a2.55,2.55,0,0,1-.55.53,10.54,10.54,0,0,1-.92.62c-.31.19-.6.36-.83.48l.6,0C18.41,55.35,22.27,54.19,23.49,55.6Z"/><path class="cls-5" d="M20.22,52.16a15.32,15.32,0,0,0-3.55.49s1.08-4.92,1.08-4.89a6.43,6.43,0,0,1,2.95-.38S20.2,52.15,20.22,52.16Z"/><path class="cls-5" d="M23.86,50.09a4.55,4.55,0,0,0-2.9-.21s.64-7.67.64-7.64c.48-.09,1.8-.29,2.42.32Z"/><path class="cls-5" d="M20.73,47.11a7,7,0,0,0-2.9.34s.84-4.23.84-4.2a10.1,10.1,0,0,1,2.51-.93S20.76,47.11,20.73,47.11Z"/><path class="cls-5" d="M23.86,52.61a8.76,8.76,0,0,0-3.11-.48s.2-2,.2-2a4.26,4.26,0,0,1,2.91.22Z"/><path class="cls-5" d="M29,48.78a7.08,7.08,0,0,1,3.17.41s-1.25-5.84-1.25-5.81a9.73,9.73,0,0,0-2.57-1.06S29,48.78,29,48.78Z"/><path class="cls-5" d="M25.71,44.5a3.4,3.4,0,0,1,2.44-.22s-.16-2-.17-2c-.47-.09-1.73-.27-2.27.28Z"/><path class="cls-5" d="M25.75,52.62a6,6,0,0,1,3.09-.46s-.7-7.69-.7-7.66a3.08,3.08,0,0,0-2.41.21S25.78,52.63,25.75,52.62Z"/><path class="cls-5" d="M29.36,52.16a21.55,21.55,0,0,1,3.53.38s-.66-3.11-.66-3.08A7.53,7.53,0,0,0,29.05,49S29.33,52.16,29.36,52.16Z"/><path class="cls-1" d="M48.72,17.72a14.37,14.37,0,0,0-4.11-2.51c-5-2.11-12.38-3.15-19.77-3.15a66.44,66.44,0,0,0-14,1.39,32.75,32.75,0,0,0-5.65,1.76,13.62,13.62,0,0,0-4,2.52L1,17.85V36.28A37.06,37.06,0,0,0,13.62,60.5,46,46,0,0,0,21.24,66c1,.59,1.89,1,2.51,1.32l.73.32.22.09.07,0h.16a.26.26,0,0,0,.13,0h0l.33-.14a44.83,44.83,0,0,0,12-8.23A36.5,36.5,0,0,0,48.85,36.33V17.85ZM35.63,59.87a46,46,0,0,1-7.49,5.41c-1,.58-1.85,1-2.43,1.29l-.69.32-.11,0a30.43,30.43,0,0,1-4.13-2.16A43.58,43.58,0,0,1,9.53,55,37.18,37.18,0,0,1,6.47,50.5,58.67,58.67,0,0,1,24.83,33.87a57.78,57.78,0,0,1,13.76,11c1.58,1.71,2.8,3.22,3.61,4.29.4.53.71,1,.92,1.26l.18.26A39.13,39.13,0,0,1,35.63,59.87ZM48,36.26A34.63,34.63,0,0,1,43.67,50,59.25,59.25,0,0,0,25,33.2l-.17-.09-.16.09A59.13,59.13,0,0,0,6.11,49.87,34.92,34.92,0,0,1,1.85,36.22v-18A13.09,13.09,0,0,1,5.5,16c4.75-2,12-3.09,19.34-3.09a66.53,66.53,0,0,1,13.89,1.38A31.62,31.62,0,0,1,44.28,16,13.78,13.78,0,0,1,48,18.23Z"/><path class="cls-1" d="M36.94,55.75,33,43.67l-1.44-1h0s-.64-.37-1.53-.75a8.34,8.34,0,0,0-3-.75,2.52,2.52,0,0,0-1.91.66,1.08,1.08,0,0,0-.24.31,1.36,1.36,0,0,0-.25-.31,2.52,2.52,0,0,0-1.91-.66,8.44,8.44,0,0,0-3,.75,14.21,14.21,0,0,0-1.54.74h0L16.71,43.7l-4,12h0s-.07,0-.07.07,10.65.26,10.68.29a2.49,2.49,0,0,0,3,0s10.6-.3,10.63-.3Zm-23.55-.3c.23-.12.52-.29.83-.48a10.54,10.54,0,0,0,.92-.62,2.55,2.55,0,0,0,.55-.53l.41-.08a25.54,25.54,0,0,1,4.5-.47,8.16,8.16,0,0,1,2.83.41,2.32,2.32,0,0,1,.91.59,1.45,1.45,0,0,1,.38.83l-1.23.5c-1.22-1.41-5.08-.25-9.5-.13Zm12.86.16L25,55.1a1.48,1.48,0,0,1,.39-.9,3,3,0,0,1,1.53-.78,9.63,9.63,0,0,1,2.21-.22,23.63,23.63,0,0,1,3.37.28l1.13.19.42.09A5.47,5.47,0,0,0,35.55,55c.35.21.68.39.9.5l-1.28,0C31,55.26,27.42,54.25,26.25,55.61Zm10.18-.41c-.32-.17-.78-.43-1.22-.72a4.06,4.06,0,0,1-1-.92s0-.07,0-.15c-.17-.68-.79-3.32-1.37-5.78-.29-1.23-.57-2.41-.77-3.29-.12-.53-.22-1-.28-1.2l1,.73ZM25.35,42A2.28,2.28,0,0,1,27,41.47a7.94,7.94,0,0,1,2.9.72c.43.18.81.37,1.07.5l.31.17c.06,0,.1,0,.1.06l0,0h0s.63,2.68,1.25,5.35c.32,1.34.63,2.68.87,3.68l.29,1.21c0,.14.06.24.08.31a27,27,0,0,0-4.8-.52,8.45,8.45,0,0,0-2.91.42,2.75,2.75,0,0,0-1,.65l-.12.17V42.39A1.15,1.15,0,0,1,25.35,42Zm-5.23,0a7.47,7.47,0,0,1,2.58-.58,2.26,2.26,0,0,1,1.69.55,2,2,0,0,1,.21.28V54.22l-.08-.11a3.21,3.21,0,0,0-1.66-.85A10.14,10.14,0,0,0,20.6,53a27,27,0,0,0-4.8.52c0-.11.06-.26.11-.46.53-2.15,2.18-9.27,2.39-10.2l.1,0A14.65,14.65,0,0,1,20.12,42.05ZM17,43.89l1-.77c-.07.3-.18.76-.31,1.33-.35,1.54-.89,3.84-1.34,5.76-.23.95-.43,1.82-.58,2.44-.07.31-.13.56-.18.74l0,.19v.05a2.44,2.44,0,0,1-.54.54c-.4.3-.93.62-1.35.87l-.43.24Z"/><path class="cls-6" d="M42.2,29.8a1,1,0,0,0,0,.87c.73-1.09,1.23-.94,1.23-.94-.44,1.63.57,2.57.39,3.12-.31.73-3.12.7-5.52-3.38,0,0-.92-1.52-1.25-1.57,1.23-.38,3.21,1.1,4.44,1.46A4,4,0,0,1,45.33,27c-.69-1-.68-3.8,1.31-4.31-2.6-1.18-1-4.25-.13-5-1,.07-4.28-1.46-7.73,3.43,2.84,2.77.12,6.41-2,4.33,0-.64.65-1.05.92-1.66a28.07,28.07,0,0,0-.32-3.18.86.86,0,0,1,.75.3c.09.1-.18-.86-.68-.95a1.7,1.7,0,0,1,1.14.21s-.59-1-1.23-1.09c0,0,1.93.05,1.24-2.29a2.22,2.22,0,0,1-2.27,1.28,11.92,11.92,0,0,0-2.28-.74c-.4,0-.41.12-.62.25s-1.15-.48-2.1-.17a5.21,5.21,0,0,0,.64.29,1.75,1.75,0,0,1,.2,1c.81-.63,1.35.36,1.35.36a6.71,6.71,0,0,1-1.25.44c-.54.1-1.06-.07-1.09-.45-.16.33.22.58.74.68a7.56,7.56,0,0,0,1.74-.14.21.21,0,0,1-.14.28c-.36.19-1.13.05-1.46.16a11.7,11.7,0,0,1,0,1.45c.2-.23,1.34-1.31,1.85-1.16a3.16,3.16,0,0,0,1.79-.15s-.51.26-1.15.53a4.84,4.84,0,0,0-2.68,4.07c0,.7-2.07,2.61-3.58.57-.67-.23-1.93,0-1.88,1,0,0,1.78-.66,1.5,0a5.81,5.81,0,0,0-1.4.52A1.34,1.34,0,0,0,26.33,28c.67-.5,1.21-1.18,1.8-.85a1.78,1.78,0,0,0-.65,1.06,2.12,2.12,0,0,0,.14.8c.33-.89.84-1.6,1.73-1.43s.88-.41,2.3.33c-.08-.49-1.19-.84-1.19-.84,1-.33,2.2-.19,3.19-1.56A2.64,2.64,0,0,1,31.91,27c.55,2.53,3,3.75,3.91,4.87-.82,0-2.34-.84-2.77.25a12.43,12.43,0,0,0,.43,2.75c-.41.2-.87-.13-1.3-.18-.85-.69.07-2.8-1.77-2.34l.23.56A4.11,4.11,0,0,1,31.46,34c-.46,0-.77-.61-1.05-1s-.23-.79-.62-.69c-.25.3-.82-.1-1,.38A4,4,0,0,1,30.33,34c-.44.11-.74-.5-1.15-.66-.44,0-.95-.1-1.31.13.05.38.59.46.87.66,1.05.87,2.29,1.19,3.13,2.25.34.28.38.47.5,1.53a1.32,1.32,0,0,0,.23-1.19l-.17-.46c1.41.31,4,.84,4,2,.66,0-.64-2.66-.44-3.49,0,0,1.26.42,1.61-.21a1,1,0,0,0,.11-1c.36.52-.07,1-.43,2.29.67.79,2.18.84,2.11,2.09-.24.79.79,1.29-.44,1.47-.64.28-1.64-.08-2,.69.05.35-.15.84.18,1.09a1.06,1.06,0,0,1,1.41-.61c-.23.36-.72.5-.82,1a1,1,0,0,0,.72,1.05c-.13-1.06.68-1.28,1.33-1.9l.35,0a3.86,3.86,0,0,0-.25,1.77s1.34,1,1.13.77c-.66-.94.52-1.73.21-2.83A2,2,0,0,1,43.41,40c-.13-.69-1.61-.32-2.08-.79,0-.21-.28.46-.28.2.25-.49-.63-.58,0-2,.17-.37,0-.29,1.06-.41a2.56,2.56,0,0,0-1.41-.3,3.13,3.13,0,0,0-.47-1.47,4.86,4.86,0,0,0,4.65.2,2.14,2.14,0,0,0,1-1.52c.39-2.14-1.74-2.6-1.7-4.06a2.16,2.16,0,0,1,1.45,1.39,5.5,5.5,0,0,0-.08-1.76c0-.68.12-1.44.9-1.55C46.23,27.53,43.23,27.79,42.2,29.8ZM34.5,18.61c-.12,0-.07-.44-.07-.44s.13-.19.66.07.58.42.58.42A6.64,6.64,0,0,0,34.5,18.61Z"/><path class="cls-7" d="M28.58,19A.92.92,0,0,1,27.2,20s.41.76,1.57.18l.36.06a15.22,15.22,0,0,0,2.62,4.13,2.25,2.25,0,0,1,.41-1.28,36,36,0,0,1-2-3.89c.16-.86.88-1.33.29-2.46a.73.73,0,0,0-1-.4.92.92,0,0,1,.44,1.1c-.28-.33-.15-.79-.88-1.06-.56-.17-.89-.44-1.45-.24.18.33.83.48,1.14.75l.06.71a1.82,1.82,0,0,0-1.3-.74c-.56,0-.93,0-1,.67C28.1,17.17,28.32,18.1,28.58,19Z"/><path class="cls-8" d="M17.72,23.05a2.22,2.22,0,0,1,.4,1.27,15,15,0,0,0,2.62-4.13l.36-.05c1.16.58,1.57-.18,1.57-.18A.92.92,0,0,1,21.29,19c.26-.92.48-1.86,2.17-1.54-.06-.67-.43-.66-1-.66a1.72,1.72,0,0,0-1.3.74l.06-.71c.3-.27,1-.42,1.14-.75-.57-.21-.89.06-1.46.24-.73.26-.59.72-.88,1.06a.92.92,0,0,1,.44-1.1.71.71,0,0,0-1,.4c-.59,1.13.12,1.59.28,2.46A39.3,39.3,0,0,1,17.72,23.05Z"/><path class="cls-9" d="M22,26.36c-.27-.63,1.5,0,1.5,0,.06-1-1.21-1.2-1.87-1-1.51,2-3.59.13-3.59-.57a4.85,4.85,0,0,0-2.68-4.07c-.64-.26-1.15-.52-1.15-.52A3.2,3.2,0,0,0,16,20.4c.51-.15,1.65.94,1.85,1.17a11.7,11.7,0,0,1,0-1.45c-.33-.11-1.1,0-1.46-.16a.22.22,0,0,1-.14-.28,8.19,8.19,0,0,0,1.74.14c.52-.11.9-.35.74-.68,0,.38-.55.55-1.09.44a6,6,0,0,1-1.25-.44s.55-1,1.36-.35a1.86,1.86,0,0,1,.19-1,5,5,0,0,0,.65-.3c-1-.3-1.9.31-2.11.18s-.22-.25-.61-.25a11.93,11.93,0,0,0-2.29.73,2.22,2.22,0,0,1-2.27-1.28c-.69,2.34,1.25,2.3,1.25,2.3-.65.09-1.23,1.09-1.23,1.09A1.72,1.72,0,0,1,12.4,20c-.5.09-.77,1-.68,1a.88.88,0,0,1,.76-.3,27.92,27.92,0,0,0-.33,3.18c.27.6.9,1,.93,1.65-2.1,2.09-4.82-1.55-2-4.33-3.45-4.89-6.7-3.35-7.73-3.42.87.71,2.47,3.77-.13,4.95,2,.51,2,3.3,1.31,4.31a4,4,0,0,1,3.8,2.32c1.23-.35,3.2-1.84,4.43-1.46-.32.06-1.25,1.57-1.25,1.57C9.13,33.55,6.31,33.58,6,32.85c-.18-.55.83-1.49.39-3.12,0,0,.5-.15,1.23.94a1,1,0,0,0,0-.87c-1-2-4-2.27-4.26-1.84.78.12.9.87.9,1.56a5.44,5.44,0,0,0-.08,1.75,2.13,2.13,0,0,1,1.45-1.38c0,1.45-2.08,1.91-1.7,4a2.19,2.19,0,0,0,1,1.53,4.83,4.83,0,0,0,4.65-.21,3.22,3.22,0,0,0-.47,1.48,2.53,2.53,0,0,0-1.4.3c1,.11.88,0,1,.4.68,1.41-.21,1.51,0,2,0,.25-.23-.41-.28-.21-.47.48-1.94.1-2.08.79a2,2,0,0,1,2.18.48c-.3,1.09.87,1.88.21,2.82-.21.26,1.13-.76,1.13-.76a3.9,3.9,0,0,0-.25-1.78l.35,0c.65.62,1.46.83,1.33,1.9a1,1,0,0,0,.72-1.05c-.1-.53-.59-.67-.82-1a1.06,1.06,0,0,1,1.41.61c.33-.25.13-.74.18-1.1-.34-.76-1.33-.41-2-.68-1.24-.18-.21-.69-.44-1.48-.08-1.24,1.43-1.29,2.1-2.08-.36-1.33-.78-1.77-.43-2.3a1.05,1.05,0,0,0,.11,1c.35.63,1.61.21,1.61.21.2.83-1.09,3.44-.44,3.48,0-1.17,2.59-1.7,4-2l-.17.45a1.35,1.35,0,0,0,.23,1.19c.12-1.05.16-1.25.5-1.52.84-1.07,2.08-1.39,3.13-2.25.28-.21.82-.28.87-.67-.36-.22-.87-.07-1.31-.12-.41.15-.71.76-1.15.66a3.87,3.87,0,0,1,1.54-1.27c-.18-.48-.75-.08-1-.39-.39-.09-.46.44-.62.69s-.59,1-1.05,1a4.33,4.33,0,0,1,.82-1.09l.23-.57c-1.84-.45-.92,1.66-1.76,2.34-.44,0-.9.39-1.31.18a11.7,11.7,0,0,0,.43-2.74c-.43-1.1-1.94-.26-2.77-.26C15,30.77,17.41,29.54,18,27a2.66,2.66,0,0,1-1.75-1.48c1,1.36,2.16,1.22,3.19,1.56,0,0-1.11.35-1.19.84,1.42-.75,1.51-.18,2.3-.34s1.4.55,1.74,1.43a2.17,2.17,0,0,0,.13-.8,1.77,1.77,0,0,0-.65-1.05c.6-.34,1.13.34,1.8.85a1.26,1.26,0,0,0-.18-1.15A5.81,5.81,0,0,0,22,26.36Zm-7.18-8.13c.53-.25.66-.06.66-.06s.05.45-.06.44a5.83,5.83,0,0,0-1.18.05S14.26,18.49,14.78,18.23Z"/></svg>